# xmcd
#
# Track frame offsets:
#	150
#	11946
#	22382
#	32963
#	41858
#	53563
#	63205
#	75408
#	87498
#	98400
#	110215
#
# Disc length: 1652 seconds
# Revision: 2
# Processed by: cddbd v1.5.2PL0 Copyright (c) Steve Scherf et al.
# Submitted via: dBpowerAMP V12.0
#
DISCID=8f06720b
DTITLE=Tammy Wynette - Stand By Your Man
DYEAR=1969
DGENRE=Country
TTITLE0=Stand By Your Man
TTITLE1=It's My Way
TTITLE2=Forever Yours
TTITLE3=I Stayed Long Enough
TTITLE4=It Keeps Slipping My Mind
TTITLE5=My Arms Stay Open Late
TTITLE6=I've Learned
TTITLE7=Cry, Cry Again
TTITLE8=Joey
TTITLE9=If I Were A Little Girl
TTITLE10=Don't Make Me Go To School
EXTD=
EXTT0=
EXTT1=
EXTT2=
EXTT3=
EXTT4=
EXTT5=
EXTT6=
EXTT7=
EXTT8=
EXTT9=
EXTT10=
PLAYORDER=
